<?xml version="1.0" encoding="UTF-8"?>
<svg version="1.1" xmlns="http://www.w3.org/2000/svg" width="512" height="512">
<path d="M0 0 C15.277455 7.293921 28.6416962 15.37606061 41 27 C41.60457031 27.52851562 42.20914063 28.05703125 42.83203125 28.6015625 C58.66356827 43.06128016 66.88921522 65.75552146 68.23828125 86.69921875 C68.55919829 103.94428713 65.64550765 120.75603134 56.625 135.625 C43.65681553 157.38706063 40.22902567 184.36361397 46.23144531 208.91210938 C52.98704837 234.11614803 69.34060695 255.02267194 91.85205078 268.07373047 C95.52629984 270.13096467 99.24702286 272.08972849 103 274 C98.40028139 278.59971861 87.6385549 277.96889164 81.35546875 278.04296875 C45.62960698 276.28729783 13.17325808 250.48576616 -10 225 C-42.13361443 188.22522161 -54.20661867 141.8786385 -52 94 C-51.49409321 87.55425984 -50.45526404 81.29464425 -49 75 C-48.7215625 73.74445313 -48.443125 72.48890625 -48.15625 71.1953125 C-41.48149387 43.97841898 -30.00981595 16.97108946 -8.01953125 -1.234375 C-4.80081408 -2.45462368 -3.13857956 -1.35128282 0 0 Z " fill="#000000" transform="translate(52,13)"/>
<path d="M0 0 C10.28598789 9.07587167 16.26944151 23.6143741 17.22265625 37.1652832 C17.34209512 40.82129669 17.37965865 44.46702586 17.375 48.125 C17.37338867 49.44435547 17.37177734 50.76371094 17.37011719 52.12304688 C17.26445615 64.01638213 15.71756108 75.42529126 13 87 C12.83983398 87.68433105 12.67966797 88.36866211 12.51464844 89.07373047 C11.53089651 93.11839205 10.33126546 97.05740615 9 101 C8.79149414 101.61858887 8.58298828 102.23717773 8.36816406 102.87451172 C-0.06778643 127.5150783 -13.58127662 149.67353637 -31.125 168.875 C-31.59147949 169.38635498 -32.05795898 169.89770996 -32.53857422 170.42456055 C-65.65176129 205.8537168 -112.71909792 223.51764913 -160.43359375 225.22265625 C-177.06119162 225.610323 -189.9514224 223.27082109 -205 216 C-205.60467327 184.04534332 -202.42141925 157.00178725 -179.46289062 132.45849609 C-160.55353832 113.60594758 -137.08409973 105.49107051 -110.9375 104.0625 C-76.40843652 101.87374884 -46.79731245 92.44145828 -23 66 C-13.75802696 54.88017587 -7.49915858 40.94109213 -4 27 C-3.78730469 26.16339844 -3.57460938 25.32679688 -3.35546875 24.46484375 C-1.97541055 18.35883087 -1.58183311 12.24591759 -1.24609375 6.00390625 C-1 3 -1 3 0 0 Z " fill="#000000" transform="translate(495,117)"/>
<path d="M0 0 C6.40918175 5.05306109 12.43742078 10.49520679 18.31640625 16.15234375 C40.87659423 37.54615466 66.91157377 51.17373486 98.4375 50.77734375 C124.66641764 50.00449314 147.99347957 35.87901193 166.56640625 18.3125 C168.625 16.5625 168.625 16.5625 171.625 15.5625 C172.90354206 29.88217104 166.38480098 43.58927305 157.625 54.5625 C128.27185304 87.91045394 82.48564424 107.97173593 38.625 111.5625 C19.3631044 112.61369951 -0.46871775 112.6980132 -19.375 108.5625 C-20.26155273 108.37445801 -21.14810547 108.18641602 -22.06152344 107.99267578 C-59.11390067 99.88706524 -103.45640877 79.9097314 -125.25 47.125 C-129.16666616 40.55632615 -133.375 33.32710857 -133.375 25.5625 C-131.4892842 23.82885805 -129.70341103 22.40365235 -127.625 20.9375 C-126.41749924 20.05188962 -125.21180739 19.16380829 -124.0078125 18.2734375 C-123.39583008 17.82323242 -122.78384766 17.37302734 -122.15332031 16.90917969 C-119.50614664 14.90453801 -117.01228381 12.73251081 -114.5 10.5625 C-99.51780632 -1.97844267 -83.42854793 -10.85874042 -64.375 -15.4375 C-63.62089844 -15.62957031 -62.86679688 -15.82164062 -62.08984375 -16.01953125 C-39.36823827 -19.51767771 -18.3503247 -13.42248815 0 0 Z " fill="#000000" transform="translate(135.375,400.4375)"/>
<path d="M0 0 C50.4786925 -1.83000889 96.76689456 16.61930584 134.35400391 49.65136719 C135.81488453 50.92548253 137.29701757 52.17513372 138.78173828 53.42138672 C149.62826236 62.70156493 156.60945488 73.42970647 161.29736328 86.82373047 C160.93445102 90.59801798 160.45180775 91.00515413 157.73486328 93.44873047 C156.1634191 94.67248578 154.57884809 95.87948329 152.98486328 97.07373047 C151.18870173 98.54743572 149.39721999 100.02685873 147.60986328 101.51123047 C146.67013672 102.27177734 145.73041016 103.03232422 144.76220703 103.81591797 C143.01012888 105.24025154 141.27110521 106.68094038 139.55126953 108.14404297 C122.32463739 122.57028663 101.60259784 130.59121426 78.98486328 129.07373047 C55.17101492 126.08128279 36.79665727 114.46581254 19.98486328 98.07373047 C17.36173595 95.68777559 14.6801891 93.37747122 11.98486328 91.07373047 C11.09541016 90.29384766 10.20595703 89.51396484 9.28955078 88.71044922 C-12.16391724 70.25374501 -37.00110073 60.16106269 -65.45751953 61.84619141 C-91.9642097 64.20436583 -116.07885873 78.14331742 -135.70263672 95.44384766 C-138.33849172 97.75273591 -140.76895663 99.71142468 -144.01513672 101.07373047 C-144.93462432 85.13594546 -137.63507574 70.45805419 -127.38232422 58.65185547 C-126.60115234 57.80107422 -125.81998047 56.95029297 -125.01513672 56.07373047 C-124.25458984 55.24357422 -123.49404297 54.41341797 -122.71044922 53.55810547 C-116.07014731 46.63477429 -108.67934098 40.8034601 -101.01513672 35.07373047 C-99.71576172 34.09919922 -99.71576172 34.09919922 -98.39013672 33.10498047 C-69.87389283 12.46822502 -35.0350212 1.2818726 0 0 Z " fill="#000000" transform="translate(144.01513671875,306.92626953125)"/>
<path d="M0 0 C0.61794434 0.3304834 1.23588867 0.6609668 1.87255859 1.00146484 C41.56870483 22.27673167 72.14190428 59.46257991 85.73876953 102.32910156 C87.39544679 107.83447381 88.77363702 113.38406363 90 119 C90.16516113 119.74846191 90.33032227 120.49692383 90.50048828 121.26806641 C95.09750464 143.18827576 95.02649667 168.19348029 90 190 C89.70996094 191.28003906 89.41992188 192.56007812 89.12109375 193.87890625 C84.22281449 213.53350795 76.99234886 235.16733245 64 251 C63.30132812 251.85980469 62.60265625 252.71960938 61.8828125 253.60546875 C59.68264751 256.18247861 57.38305992 258.59245659 55 261 C54.05640625 262.10988281 54.05640625 262.10988281 53.09375 263.2421875 C50.64863247 265.58057371 49.36333896 266.43263513 46 267 C26.41716718 263.13440827 5.82526463 247.11868419 -5.19140625 230.92578125 C-17.77357906 210.57146714 -21.57308073 188.07284163 -16.1015625 164.6015625 C-13.34565341 155.59110795 -9.17702719 147.24103157 -4.85473633 138.89550781 C-0.84524458 131.1225976 2.09106295 123.59021672 4 115 C4.22429687 113.99066406 4.44859375 112.98132813 4.6796875 111.94140625 C9.89512561 83.89949584 3.11262291 56.79057435 -12 33 C-14.18243557 29.85300586 -16.51476486 26.91188495 -19 24 C-19.64195313 23.21367188 -20.28390625 22.42734375 -20.9453125 21.6171875 C-32.20062962 8.36830868 -46.52967779 -0.421898 -62 -8 C-62 -8.66 -62 -9.32 -62 -10 C-39.57653834 -15.70862058 -19.84594453 -10.85004925 0 0 Z " fill="#000000" transform="translate(129,12)"/>
<path d="M0 0 C14.83047348 -0.29980742 28.48176749 2.44304953 41.7109375 9.12890625 C41.78645579 13.14493006 41.84016648 17.16066552 41.87573242 21.17724609 C41.89780917 23.19643737 41.93597407 25.21543267 41.97460938 27.234375 C42.14021166 49.64588483 34.43515896 70.21412484 18.64453125 86.3125 C-0.79772657 105.32943829 -26.1945046 111.61277483 -52.6015625 113.06640625 C-79.62228397 114.78632386 -101.97222269 121.86961664 -123.2890625 139.12890625 C-124.13082031 139.79277344 -124.97257812 140.45664063 -125.83984375 141.140625 C-146.25924099 158.23820642 -158.92147691 185.10347391 -161.50732422 211.34375 C-161.87715548 215.9347588 -162.11368321 220.52671189 -162.2890625 225.12890625 C-168.88950308 222.55805631 -171.87785353 215.07323491 -174.78125 209.015625 C-179.38872784 198.28756269 -180.69719699 189.1964365 -180.6640625 177.56640625 C-180.66385101 176.88382751 -180.66363953 176.20124878 -180.66342163 175.49798584 C-180.52311354 129.90915922 -161.15186167 88.10156291 -130.2890625 55.12890625 C-129.40605469 54.18015625 -128.52304687 53.23140625 -127.61328125 52.25390625 C-94.18647196 17.1468373 -47.33587582 1.85520653 0 0 Z " fill="#000000" transform="translate(436.2890625,92.87109375)"/>
</svg>
